# xmcd CD database file
#
# Track frame offsets:
#	150
#	19222
#	37183
#	51090
#	79597
#	96259
#	113797
#	128085
#	154893
#	179396
#	195187
#
# Disc length: 2899 seconds
#
# Revision: 0
# Processed by: cddbd v1.5.2PL0 Copyright (c) Steve Scherf et al.
# Submitted via: CDex 1.51
#
DISCID=890b510b
DTITLE=Dustin Pittsley Band, The - Staring Into The Sun
DYEAR=2008
DGENRE=Blues
TTITLE0=Staring Into The Sun
TTITLE1=Living In A Dream
TTITLE2=Little Lover
TTITLE3=In The Morning
TTITLE4=Bitter Shades Of Blue
TTITLE5=Bring Me Down
TTITLE6=World On Her Side
TTITLE7=Dig My Grave
TTITLE8=Too Much To Believe
TTITLE9=Queen Of Spades
TTITLE10=What Your Not
EXTD=YEAR: 2008
EXTT0=
EXTT1=
EXTT2=
EXTT3=
EXTT4=
EXTT5=
EXTT6=
EXTT7=
EXTT8=
EXTT9=
EXTT10=
PLAYORDER=
